# xmcd
#
# Track frame offsets:
#	150
#	12644
#	25896
#	44502
#	61862
#	78131
#	91754
#	106757
#	122911
#	137805
#	153678
#	168748
#	181806
#	196297
#	208513
#	219556
#
# Disc length: 3112 seconds
#
# Revision: 0
# Processed by: cddbd v1.5.1PL2 Copyright (c) Steve Scherf et al.
# Submitted via: audiograbber 1.80.04
#
DISCID=da0c2610
DTITLE=Country Mountain Bluegrass - Country Mountain Bluegrass
DYEAR=2002
DGENRE=Bluegrass
TTITLE0=Cripple Creek
TTITLE1=Sally Ann
TTITLE2=Man Of Constant Sorrow
TTITLE3=Black Mountain Rag
TTITLE4=Foggy Mountain Breakdown
TTITLE5=Lonesome Moonlight Waltz
TTITLE6=Old Joe Clark
TTITLE7=Angeline The Baker
TTITLE8=Banks Of The Ohio
TTITLE9=Soldier's Joy
TTITLE10=Clinch Mountain Backstep
TTITLE11=Blue Moon Of Kentucky
TTITLE12=Wildwood Flower
TTITLE13=Roll In My Sweet Baby's Arms
TTITLE14=Keep On The Sunny Side Of Life
TTITLE15=Cottoneyed Joe
EXTD=
EXTT0=
EXTT1=
EXTT2=
EXTT3=
EXTT4=
EXTT5=
EXTT6=
EXTT7=
EXTT8=
EXTT9=
EXTT10=
EXTT11=
EXTT12=
EXTT13=
EXTT14=
EXTT15=
PLAYORDER=
